<?xml version="1.0" encoding="utf-8"?>

<svg version="1.1" id="圖層_1" xmlns="http://www.w3.org/2000/svg" xmlns:xlink="http://www.w3.org/1999/xlink" x="0px" y="0px"
	 viewBox="0 0 16 16" style="enable-background:new 0 0 16 16;" xml:space="preserve">
<style type="text/css">
	.st0{fill:url(#Path_4156_2_);}
	.st1{fill:url(#Path_4157_2_);}
	.st2{fill:#FF5F00;}
	.st3{fill:url(#Path_4159_2_);}
	.st4{fill:url(#Path_4160_2_);}
</style>
<g id="Group_398_1_" transform="translate(-261 -66.57)">
	<g id="Group_391_1_" transform="translate(261 66.57)">
		<g id="Group_397_1_" transform="translate(0)">
			<g id="Group_394_1_" transform="translate(0)">
				<g id="Group_392_1_" transform="translate(0.001)">
					<g id="Group_391-2_1_" transform="translate(9.916 5.261)">
						
							<linearGradient id="Path_4156_2_" gradientUnits="userSpaceOnUse" x1="-374.1589" y1="289.4457" x2="-374.2426" y2="289.2306" gradientTransform="matrix(14.468 0 0 -19.2957 5410.5254 5587.0874)">
							<stop  offset="0" style="stop-color:#FF5F00"/>
							<stop  offset="0.26" style="stop-color:#FF5F00"/>
							<stop  offset="1" style="stop-color:#FFB07A"/>
						</linearGradient>
						<path id="Path_4156_1_" class="st0" d="M-1.2,2.2C-1.8,2.1-2.4,2-3,2c-1,0.8-1.8,1.8-2.3,3c-0.6,1.5,0.1,1.6,0.7,0.7
							C-4.1,4.8-3.4,3.3-3,3.4c0.3,0.1-0.4,1.5-0.6,2.8c-0.3,1.6-0.1,2.2,0.8,0.3C-2.2,5.1-1.7,3.7-1.2,2.2z"/>
						
							<linearGradient id="Path_4157_2_" gradientUnits="userSpaceOnUse" x1="-382.2056" y1="287.2613" x2="-382.4567" y2="286.9892" gradientTransform="matrix(20.9307 0 0 -17.5203 8000.4736 5030.5952)">
							<stop  offset="0" style="stop-color:#FF5F00"/>
							<stop  offset="1" style="stop-color:#FF9A57"/>
						</linearGradient>
						<path id="Path_4157_1_" class="st1" d="M-0.3-2.5C-1.5,0.7-2.5,1-5.1,1.4C-6.3,1.5-6,2.2-4.7,2.1C-4.2,2-3.6,2-3,2
							c0.7-0.5,1.4-0.9,2.2-1.1c0.4-1,0.7-2.1,1.1-3.1S0.1-3.6-0.3-2.5z"/>
						<path id="Path_4158_1_" class="st2" d="M-2.9,0.3c0.7,0.3,1.2-1,0.5-1.3S-3.6,0-2.9,0.3z"/>
					</g>
					
						<linearGradient id="Path_4159_2_" gradientUnits="userSpaceOnUse" x1="-382.2226" y1="302.9264" x2="-382.3774" y2="303.0386" gradientTransform="matrix(46.2029 0 0 -50.0016 17674.3965 15159.4814)">
						<stop  offset="0" style="stop-color:#FFCEAB"/>
						<stop  offset="0.415" style="stop-color:#FF954F"/>
						<stop  offset="0.637" style="stop-color:#FF8D42"/>
						<stop  offset="1" style="stop-color:#FF5F00"/>
					</linearGradient>
					<path id="Path_4159_1_" class="st3" d="M14.2,3.2c0.3,0.5-0.2,0.7-0.4,0.4c-2.5-3.5-9-3.2-11,1.3C1.3,8.2,3,12.2,6.5,13.3
						c2,0.6,3.7-0.5,4-2.2c0.3-1.6-0.7-3.6-3.6-3.8c4.5-3.2,8.2,0,8,3.5c-0.1,3.2-4.1,6.1-9.2,4.1c-4-1.6-5.9-6.4-3.9-10.2
						C4.5-0.3,11-0.8,14.2,3.2z"/>
				</g>
				<g id="Group_393_1_">
					
						<linearGradient id="Path_4160_2_" gradientUnits="userSpaceOnUse" x1="-381.9882" y1="298.567" x2="-381.9882" y2="298.8538" gradientTransform="matrix(44.2432 0 0 -28.7435 16908.0859 8590.7314)">
						<stop  offset="9.900000e-02" style="stop-color:#FF5F00"/>
						<stop  offset="0.415" style="stop-color:#EEB819"/>
						<stop  offset="0.637" style="stop-color:#C6CD37"/>
						<stop  offset="0.809" style="stop-color:#25A999"/>
						<stop  offset="1" style="stop-color:#A14F90"/>
					</linearGradient>
					<path id="Path_4160_1_" class="st4" d="M2.4,8.8C2.1,7.5,2.3,6.1,2.8,4.9c2-4.5,8.5-4.8,11-1.3c0.2,0.3,0.7,0.1,0.4-0.4
						C11-0.8,4.5-0.3,1.9,4.6c-0.7,1.4-1,3-0.7,4.5L2.4,8.8z"/>
				</g>
			</g>
		</g>
	</g>
</g>
</svg>
